<?xml version="1.0" standalone="no"?>
<!DOCTYPE svg PUBLIC "-//W3C//DTD SVG 20010904//EN"
 "http://www.w3.org/TR/2001/REC-SVG-20010904/DTD/svg10.dtd">
<svg version="1.0" xmlns="http://www.w3.org/2000/svg"
 width="260.000000pt" height="260.000000pt" viewBox="0 0 260.000000 260.000000"
 preserveAspectRatio="xMidYMid meet">
<metadata>
Created by potrace 1.14, written by Peter Selinger 2001-2017
</metadata>
<g transform="translate(0.000000,260.000000) scale(0.100000,-0.100000)"
fill="#000000" stroke="none">
<path d="M3 2414 c-2 -6 -3 -310 -1 -675 4 -653 4 -665 26 -737 58 -189 181
-348 343 -444 62 -37 901 -378 929 -378 31 0 873 344 938 383 85 51 161 123
223 210 45 65 102 184 113 237 2 14 9 48 15 77 12 60 15 902 4 904 -43 5 -959
2 -992 -3 -202 -35 -333 -240 -276 -433 30 -104 93 -176 195 -224 49 -22 71
-26 195 -29 77 -2 147 -8 155 -12 24 -13 42 -73 31 -103 -21 -55 -36 -58 -327
-60 -226 -2 -268 -4 -275 -17 -4 -8 -21 -45 -37 -81 -16 -36 -50 -87 -74 -113
-38 -39 -42 -46 -24 -47 87 -3 716 2 735 6 14 2 49 17 78 32 253 128 249 488
-7 619 -51 26 -66 28 -208 33 -138 5 -155 8 -168 26 -39 53 -20 128 36 142 16
4 182 8 368 8 l337 -1 2 -290 c2 -310 -4 -370 -48 -457 -51 -99 -142 -186
-244 -232 -27 -12 -206 -84 -398 -161 l-347 -138 -258 103 c-141 56 -302 120
-357 142 -208 83 -299 149 -359 260 -64 116 -65 130 -66 694 l0 512 1161 -1
c638 -1 1165 2 1170 5 6 3 8 60 7 130 l-3 124 -1294 1 c-985 0 -1294 -3 -1298
-12z"/>
<path d="M436 1990 c-9 -17 3 -850 12 -878 38 -116 146 -214 261 -237 56 -12
216 -5 268 12 104 33 194 128 224 237 15 54 19 866 4 867 -58 5 -224 3 -236
-3 -14 -6 -16 -48 -15 -390 1 -211 -2 -395 -7 -411 -15 -44 -43 -57 -127 -57
-69 0 -79 2 -101 26 l-24 26 -1 396 c-1 218 -2 402 -3 407 -1 10 -250 15 -255
5z"/>
</g>
</svg>
